<svg data-v-fde0c5aa="" xmlns="http://www.w3.org/2000/svg" viewBox="0 0 300 300" class="iconLeft"><!----><defs data-v-fde0c5aa=""><!----></defs><rect data-v-fde0c5aa="" fill="#121212" x="0" y="0" width="300px" height="300px" class="logo-background-square"></rect><defs data-v-fde0c5aa=""><!----></defs><g data-v-fde0c5aa="" id="c5eef98c-1a81-48d5-8452-f2bc74eabeb4" fill="#FFFFFF" transform="matrix(3.0614702971086825,0,0,3.0614702971086825,87.60860847490022,121.69670672367631)"><path d="M1.24 12.61L1.24 2.95L4.27 2.95L4.27 2.95Q5.26 2.95 6.04 3.28L6.04 3.28L6.04 3.28Q6.81 3.62 7.25 4.27L7.25 4.27L7.25 4.27Q7.68 4.92 7.68 5.80L7.68 5.80L7.68 5.80Q7.68 6.69 7.25 7.31L7.25 7.31L7.25 7.31Q6.81 7.94 6.04 8.27L6.04 8.27L6.04 8.27Q5.26 8.60 4.27 8.60L4.27 8.60L2.97 8.60L2.97 12.61L1.24 12.61ZM2.97 6.98L4.27 6.98L4.27 6.98Q5.15 6.98 5.55 6.69L5.55 6.69L5.55 6.69Q5.96 6.39 5.96 5.80L5.96 5.80L5.96 5.80Q5.96 4.57 4.27 4.57L4.27 4.57L2.97 4.57L2.97 6.98ZM10.36 12.74L10.36 12.74Q9.69 12.74 9.31 12.41L9.31 12.41L9.31 12.41Q8.93 12.08 8.93 11.25L8.93 11.25L8.93 2.95L10.60 2.95L10.60 10.79L10.60 10.79Q10.60 11.25 11.14 11.25L11.14 11.25L11.14 11.25Q11.33 11.25 11.60 11.20L11.60 11.20L11.60 12.61L11.60 12.61Q10.90 12.74 10.36 12.74L10.36 12.74ZM14.75 12.74L14.75 12.74Q14.05 12.74 13.48 12.48L13.48 12.48L13.48 12.48Q12.92 12.22 12.60 11.71L12.60 11.71L12.60 11.71Q12.27 11.20 12.27 10.51L12.27 10.51L12.27 10.51Q12.27 9.46 13.01 9.00L13.01 9.00L13.01 9.00Q13.74 8.53 14.99 8.53L14.99 8.53L16.77 8.53L16.77 8.53Q16.77 7.87 16.42 7.48L16.42 7.48L16.42 7.48Q16.07 7.09 15.42 7.09L15.42 7.09L15.42 7.09Q14.88 7.09 14.47 7.36L14.47 7.36L14.47 7.36Q14.06 7.63 13.82 8.05L13.82 8.05L12.54 7.13L12.54 7.13Q13.06 6.41 13.76 6.02L13.76 6.02L13.76 6.02Q14.45 5.63 15.41 5.63L15.41 5.63L15.41 5.63Q16.32 5.63 16.99 5.99L16.99 5.99L16.99 5.99Q17.66 6.34 18.01 6.99L18.01 6.99L18.01 6.99Q18.36 7.63 18.36 8.46L18.36 8.46L18.36 12.61L16.99 12.61L16.88 11.63L16.88 11.63Q16.46 12.24 15.93 12.49L15.93 12.49L15.93 12.49Q15.41 12.74 14.75 12.74L14.75 12.74ZM14.99 11.33L14.99 11.33Q15.46 11.33 15.86 11.11L15.86 11.11L15.86 11.11Q16.26 10.89 16.51 10.52L16.51 10.52L16.51 10.52Q16.75 10.16 16.77 9.73L16.77 9.73L15.09 9.73L15.09 9.73Q14.55 9.73 14.26 9.97L14.26 9.97L14.26 9.97Q13.98 10.21 13.98 10.56L13.98 10.56L13.98 10.56Q13.98 10.91 14.25 11.12L14.25 11.12L14.25 11.12Q14.51 11.33 14.99 11.33L14.99 11.33ZM20.52 15.54L21.78 12.42L19.11 5.78L20.94 5.78L22.66 10.52L24.41 5.78L26.24 5.78L22.34 15.54L20.52 15.54ZM29.06 12.74L29.06 12.74Q28.36 12.74 27.79 12.48L27.79 12.48L27.79 12.48Q27.23 12.22 26.90 11.71L26.90 11.71L26.90 11.71Q26.58 11.20 26.58 10.51L26.58 10.51L26.58 10.51Q26.58 9.46 27.31 9.00L27.31 9.00L27.31 9.00Q28.05 8.53 29.30 8.53L29.30 8.53L31.08 8.53L31.08 8.53Q31.08 7.87 30.73 7.48L30.73 7.48L30.73 7.48Q30.38 7.09 29.73 7.09L29.73 7.09L29.73 7.09Q29.18 7.09 28.78 7.36L28.78 7.36L28.78 7.36Q28.37 7.63 28.12 8.05L28.12 8.05L26.84 7.13L26.84 7.13Q27.37 6.41 28.06 6.02L28.06 6.02L28.06 6.02Q28.76 5.63 29.72 5.63L29.72 5.63L29.72 5.63Q30.63 5.63 31.30 5.99L31.30 5.99L31.30 5.99Q31.96 6.34 32.32 6.99L32.32 6.99L32.32 6.99Q32.67 7.63 32.67 8.46L32.67 8.46L32.67 12.61L31.29 12.61L31.19 11.63L31.19 11.63Q30.77 12.24 30.24 12.49L30.24 12.49L30.24 12.49Q29.72 12.74 29.06 12.74L29.06 12.74ZM29.30 11.33L29.30 11.33Q29.76 11.33 30.17 11.11L30.17 11.11L30.17 11.11Q30.57 10.89 30.82 10.52L30.82 10.52L30.82 10.52Q31.06 10.16 31.08 9.73L31.08 9.73L29.39 9.73L29.39 9.73Q28.85 9.73 28.57 9.97L28.57 9.97L28.57 9.97Q28.29 10.21 28.29 10.56L28.29 10.56L28.29 10.56Q28.29 10.91 28.55 11.12L28.55 11.12L28.55 11.12Q28.82 11.33 29.30 11.33L29.30 11.33ZM38.06 12.61L38.06 2.95L44.91 2.95L44.91 4.54L39.80 4.54L39.80 6.98L44.31 6.98L44.31 8.57L39.80 8.57L39.80 12.61L38.06 12.61ZM46.50 12.61L46.50 2.95L48.84 2.95L51.41 9.82L53.97 2.95L56.31 2.95L56.31 12.61L54.64 12.61L54.64 5.38L52.25 11.76L50.57 11.76L48.17 5.38L48.17 12.61L46.50 12.61Z"></path></g><defs data-v-fde0c5aa=""><linearGradient data-v-fde0c5aa="" gradientTransform="rotate(25)" id="7d629dc9-5b50-4ecf-8048-7b1df1e65f57" x1="0%" y1="0%" x2="100%" y2="0%"><stop data-v-fde0c5aa="" offset="0%" stop-color="#EB2D12" stop-opacity="1"></stop><stop data-v-fde0c5aa="" offset="100%" stop-color="#EBE604" stop-opacity="1"></stop></linearGradient></defs><g data-v-fde0c5aa="" id="2dd7a400-65df-4746-9353-a35b4900455e" stroke="none" fill="url(#7d629dc9-5b50-4ecf-8048-7b1df1e65f57)" transform="matrix(0.6942180647887577,0,0,0.6942180647887577,24.49463088970758,115.28840557207445)"><path d="M26.331 36.067c-.883.596-1.496 1.589-1.64 2.566 1.165-1.889 4.793-2.914 6.879-3.174-.413.457-.916.861-1.376 1.304 1.546-.85 2.939-1.594 4.728-1.818-.43.221-.725.471-.967.771-.904.249-1.762.596-2.43 1.182.811-.22 1.676-.34 2.502-.351-2.435.483-5.444 3.607-6.56 5.776.669-.756 1.86-1.545 2.913-1.582-1.246 1.188-2.75 3.265-3.013 4.979 1.361-1.577 3.617-2.913 5.519-3.718a5.664 5.664 0 0 0-1.954 2.195c1.235-1.03 3.197-2.179 4.757-2.482-.521.43-.983.924-1.351 1.487 1.707-.846 3.168-2.618 5.101-3.325-.735.511-1.102 1.32-1.549 2.091 1.48-.599 2.802-2.57 4.458-3.375.363-.175 1.23-.439 1.918-.634.013.044.033.084.048.126.023.061.042.124.07.182.034.07.077.132.118.196l-.746.612c.25-.073.492-.111.737-.16-2.606 16.162-2.236 41.298-1.895 52.727h5.341c-4.007-20.816-2.904-39.681-1.635-50.306.266-.509.547-1.003.841-1.482.271-.238.55-.467.835-.688.593.599 1.296.98 2.078.967.303-.005.559-.058.783-.142.072-.027.121-.072.185-.106.088-.046.18-.087.254-.145.488.141.979.281 1.483.411a7.839 7.839 0 0 0-1.155-.77c.032-.046.076-.082.104-.13 2.992.653 5.942 1.08 8.29 3.451-.828-1.359-2.222-1.783-3.447-2.73 3.601.92 6.187 3.276 9.482 4.773-.991-1.084-2.541-1.768-3.507-2.933 1.182.689 2.585.917 3.714 1.663 1.165 1.191 2.258 2.148 3.074 3.768-.408-1.22-.544-2.48-1.326-3.582 1.59 2.239 4.653 1.967 5.324 5.235.804-4.267-1.705-7.149-4.356-9.985 1.374.44 2.29 1.826 3.545 2.435-2.11-4.176-7.128-5.875-11.462-7.053 2.289-1.063 4.319-.53 6.62-1.155-.71-.164-1.443-.229-2.165-.302 2.176-.002 4.07.299 6.149.655-.725-.451-1.623-.94-2.523-1.117 2.143-.542 7.084 1.621 8.532 3.222-.036-1.649-2.007-3.077-3.131-4.061.566.214 1.189.402 1.784.541-.999-.989-2.602-1.273-3.865-2.068.94-.054 1.92.121 2.738.566-1.271-.729-2.498-1.519-3.919-1.962-1.138-.356-3.813-.234-4.385-1.148.591.167 1.123.057 1.703.033-1.6-.445-3.631.013-5.109-.518.726-.287 1.417-.626 2.18-.751-1.774-.431-3.717-.092-5.569.534a5.609 5.609 0 0 0-1.507-.112c1.03-.277 1.996-.758 3.066-.912a4.192 4.192 0 0 1-1.722-.473c1.029-.069 2.126-.019 3.074-.485-.257-.098-.553-.279-.796-.354 1.421-.008 2.87.112 4.296.203-.256-.103-.646-.287-.837-.369 1.604.069 2.794 1.281 4.272 1.811-.64-.251-1.126-.694-1.335-1.326 1.341.341 2.364 1.305 3.487 2.025-.34-.364-.526-.852-.84-1.234.832.287 1.611.848 2.439 1.036-1.041-2.297-2.473-4.964-4.635-6.379.52.351 1.091.616 1.697.782-.467-.795-1.266-1.422-1.826-2.12.419.178 1.04.215 1.444.381-1.347-1.509-3.066-2.13-4.97-2.323-1.614-.44-2.929-1.167-4.489-.023.415-.343.82-.701 1.191-1.088-1.205.865-2.824.936-3.734 2.196.321-.348.565-.72.843-1.099-1.294.96-2.779 1.542-3.624 3.009.389-.687.827-1.361 1.047-2.106-1.412.351-2.85 2.842-3.026 4.25.019-.054.191-1.157.205-1.562-.176.05-.34.133-.499.229.01-.009.018-.02.028-.03-.356.302-.848.477-1.255.655.067-.183.143-.366.202-.55-.126.143-.228.293-.336.441.544-1.299 1.498-2.661 2.72-3.378-.865.119-1.612.595-2.211 1.232 1.126-2.45 3.016-3.414 4.834-5.058-.786.09-1.542.383-2.31.598.721-.803 1.641-1.324 2.583-1.837-1.115.054-2.197.301-3.145.881 1.366-1.529 3.576-2.782 4.746-4.404-.791.029-1.587.436-2.397.542.537-.552 1.212-.999 1.851-1.451-2.427.294-3.66 1.766-5.774 2.705.243-.363.35-.835.59-1.195-1.219.764-2.108 1.786-3.105 2.835.212-.409.337-1.172.425-1.477-.389.962-1.471 1.51-2.103 2.356-.707.946-1.291 2.287-1.875 3.172.243-.53.438-1.159.475-1.722-2.02 3.105-2.417 6.521-2.029 9.94-.066-.169-.13-.349-.198-.502-1.008-2.265-2.631-4.683-4.659-6.159-2.243-1.633-5.213-1.3-7.851-1.459.956-.012 1.809.359 2.687.688-2.896-.783-5.224.69-7.832 1.631.888-.234 1.817-.333 2.706-.514-1.025.452-2.17.694-2.944 1.546.268-.057.57-.067.848-.117-1.297.788-3.709 1.889-4.278 3.401 1.39-1.531 3.824-1.882 5.705-2.292-1.556.401-2.862 1.195-3.73 2.569 1.822-1.154 4.475-2.278 6.631-2.184-1.184.367-2.282.804-3.252 1.573-.659-.03-1.32-.05-1.972-.086.649.099 1.305.11 1.963.093-.144.114-.293.214-.43.345.457.008.967-.111 1.5-.266.355.028.714.041 1.063.09-2.987.432-5.673 1.261-8.473 2.826 2.686-.486 5.153-.914 7.996-.599-1.348.838-3.412.935-4.945 1.603 3.476-.202 6.637-.323 9.792.931-2.654-.041-5.301.466-7.568 1.968.915-.525 2.068-.638 3.005-.257-2.421-.149-5.787 2.513-6.944 4.309.59-.283 1.18-.563 1.775-.838-1.666 1.313-2.794 3.953-3.478 5.981.963-1.491 2.574-2.236 3.996-3.188zm39.083-19.151c.289.038.573.089.774.174a8.33 8.33 0 0 1-.774-.174zm-1.129-.077c.197 0 .592.014.993.058-.326-.03-.657-.051-.993-.058zm-3.928 17.266c.515-.102 1.022-.218 1.501-.396a10.8 10.8 0 0 0-.858.569l-.643-.173zm-4.632-5.399l.004-.007.033-.012-.037.019zm-4.457-5.167c.106-.322.232-.638.355-.955.164-.206.32-.415.493-.613a12.982 12.982 0 0 0-.848 1.568zm-1.767 3.272c.077-.422.151-.843.21-1.266.283-.566.601-1.113.947-1.643-.334.988-.624 1.983-1.157 2.909zm-2.955 4.106c.065.21.132.419.199.627-.05-.026-.108-.047-.164-.068-.009-.184-.02-.368-.035-.559zm-4.784-3.49c1.355.877 2.145 2.416 2.784 4.005l-.019.004c-.466-1.204-1.082-2.417-1.93-3.176-.022.136-.02.267-.01.395a17.194 17.194 0 0 0-.825-1.228zm-1.255-1.467c.554.282 1.097.675 1.654 1.316-.194-.052-.41-.107-.625-.161a10.512 10.512 0 0 0-1.029-1.155zm-1.154-.448c.056.016.114.03.169.047.06.116.141.226.217.339-.128-.13-.255-.26-.386-.386zm-1.106-.975a12.202 12.202 0 0 0-.872-.626c.68.092 1.349.23 1.94.595a5.388 5.388 0 0 0-1.068.031zm-2.476 10.788a10.479 10.479 0 0 1 2.025-.33c-.639.094-1.273.205-1.869.302-.052.008-.105.02-.156.028zm-1.43-12.733c1.112.084 2.172.299 3.328.465-.523.042-1.054.086-1.583.141a8.98 8.98 0 0 0-1.745-.606zm1.282 1.306c-1.617-.933-3.317-.897-5.025-.806.732-.227 1.492-.471 2.215-.52.125-.008.241.002.363-.002.528.306 1.122.499 1.679.788-.042.007-.086.01-.127.017.122.056.25.096.377.139a2.8 2.8 0 0 1 .518.384z"></path></g><!----></svg>