<svg data-v-423bf9ae="" xmlns="http://www.w3.org/2000/svg" viewBox="0 0 262.44638138548953 60" class="font"><!----><!----><!----><g data-v-423bf9ae="" id="5b2582dc-0591-40c5-83d9-d711fd7b01f8" fill="black" transform="matrix(4.765686995457814,0,0,4.765686995457814,-5.909453973874463,-14.05877757910195)"><path d="M1.24 12.61L1.24 2.95L4.27 2.95L4.27 2.95Q5.26 2.95 6.04 3.28L6.04 3.28L6.04 3.28Q6.81 3.62 7.25 4.27L7.25 4.27L7.25 4.27Q7.68 4.92 7.68 5.80L7.68 5.80L7.68 5.80Q7.68 6.69 7.25 7.31L7.25 7.31L7.25 7.31Q6.81 7.94 6.04 8.27L6.04 8.27L6.04 8.27Q5.26 8.60 4.27 8.60L4.27 8.60L2.97 8.60L2.97 12.61L1.24 12.61ZM2.97 6.98L4.27 6.98L4.27 6.98Q5.15 6.98 5.55 6.69L5.55 6.69L5.55 6.69Q5.96 6.39 5.96 5.80L5.96 5.80L5.96 5.80Q5.96 4.57 4.27 4.57L4.27 4.57L2.97 4.57L2.97 6.98ZM10.36 12.74L10.36 12.74Q9.69 12.74 9.31 12.41L9.31 12.41L9.31 12.41Q8.93 12.08 8.93 11.25L8.93 11.25L8.93 2.95L10.60 2.95L10.60 10.79L10.60 10.79Q10.60 11.25 11.14 11.25L11.14 11.25L11.14 11.25Q11.33 11.25 11.60 11.20L11.60 11.20L11.60 12.61L11.60 12.61Q10.90 12.74 10.36 12.74L10.36 12.74ZM14.75 12.74L14.75 12.74Q14.05 12.74 13.48 12.48L13.48 12.48L13.48 12.48Q12.92 12.22 12.60 11.71L12.60 11.71L12.60 11.71Q12.27 11.20 12.27 10.51L12.27 10.51L12.27 10.51Q12.27 9.46 13.01 9.00L13.01 9.00L13.01 9.00Q13.74 8.53 14.99 8.53L14.99 8.53L16.77 8.53L16.77 8.53Q16.77 7.87 16.42 7.48L16.42 7.48L16.42 7.48Q16.07 7.09 15.42 7.09L15.42 7.09L15.42 7.09Q14.88 7.09 14.47 7.36L14.47 7.36L14.47 7.36Q14.06 7.63 13.82 8.05L13.82 8.05L12.54 7.13L12.54 7.13Q13.06 6.41 13.76 6.02L13.76 6.02L13.76 6.02Q14.45 5.63 15.41 5.63L15.41 5.63L15.41 5.63Q16.32 5.63 16.99 5.99L16.99 5.99L16.99 5.99Q17.66 6.34 18.01 6.99L18.01 6.99L18.01 6.99Q18.36 7.63 18.36 8.46L18.36 8.46L18.36 12.61L16.99 12.61L16.88 11.63L16.88 11.63Q16.46 12.24 15.93 12.49L15.93 12.49L15.93 12.49Q15.41 12.74 14.75 12.74L14.75 12.74ZM14.99 11.33L14.99 11.33Q15.46 11.33 15.86 11.11L15.86 11.11L15.86 11.11Q16.26 10.89 16.51 10.52L16.51 10.52L16.51 10.52Q16.75 10.16 16.77 9.73L16.77 9.73L15.09 9.73L15.09 9.73Q14.55 9.73 14.26 9.97L14.26 9.97L14.26 9.97Q13.98 10.21 13.98 10.56L13.98 10.56L13.98 10.56Q13.98 10.91 14.25 11.12L14.25 11.12L14.25 11.12Q14.51 11.33 14.99 11.33L14.99 11.33ZM20.52 15.54L21.78 12.42L19.11 5.78L20.94 5.78L22.66 10.52L24.41 5.78L26.24 5.78L22.34 15.54L20.52 15.54ZM29.06 12.74L29.06 12.74Q28.36 12.74 27.79 12.48L27.79 12.48L27.79 12.48Q27.23 12.22 26.90 11.71L26.90 11.71L26.90 11.71Q26.58 11.20 26.58 10.51L26.58 10.51L26.58 10.51Q26.58 9.46 27.31 9.00L27.31 9.00L27.31 9.00Q28.05 8.53 29.30 8.53L29.30 8.53L31.08 8.53L31.08 8.53Q31.08 7.87 30.73 7.48L30.73 7.48L30.73 7.48Q30.38 7.09 29.73 7.09L29.73 7.09L29.73 7.09Q29.18 7.09 28.78 7.36L28.78 7.36L28.78 7.36Q28.37 7.63 28.12 8.05L28.12 8.05L26.84 7.13L26.84 7.13Q27.37 6.41 28.06 6.02L28.06 6.02L28.06 6.02Q28.76 5.63 29.72 5.63L29.72 5.63L29.72 5.63Q30.63 5.63 31.30 5.99L31.30 5.99L31.30 5.99Q31.96 6.34 32.32 6.99L32.32 6.99L32.32 6.99Q32.67 7.63 32.67 8.46L32.67 8.46L32.67 12.61L31.29 12.61L31.19 11.63L31.19 11.63Q30.77 12.24 30.24 12.49L30.24 12.49L30.24 12.49Q29.72 12.74 29.06 12.74L29.06 12.74ZM29.30 11.33L29.30 11.33Q29.76 11.33 30.17 11.11L30.17 11.11L30.17 11.11Q30.57 10.89 30.82 10.52L30.82 10.52L30.82 10.52Q31.06 10.16 31.08 9.73L31.08 9.73L29.39 9.73L29.39 9.73Q28.85 9.73 28.57 9.97L28.57 9.97L28.57 9.97Q28.29 10.21 28.29 10.56L28.29 10.56L28.29 10.56Q28.29 10.91 28.55 11.12L28.55 11.12L28.55 11.12Q28.82 11.33 29.30 11.33L29.30 11.33ZM38.06 12.61L38.06 2.95L44.91 2.95L44.91 4.54L39.80 4.54L39.80 6.98L44.31 6.98L44.31 8.57L39.80 8.57L39.80 12.61L38.06 12.61ZM46.50 12.61L46.50 2.95L48.84 2.95L51.41 9.82L53.97 2.95L56.31 2.95L56.31 12.61L54.64 12.61L54.64 5.38L52.25 11.76L50.57 11.76L48.17 5.38L48.17 12.61L46.50 12.61Z"></path></g><!----><!----></svg>